<svg width="63" height="26" viewBox="0 0 63 26" fill="none" xmlns="http://www.w3.org/2000/svg">
<path d="M23.06 19.716C21.692 21.132 20.456 22.32 19.352 23.28C18.248 24.216 17.336 24.888 16.616 25.296C15.896 25.704 15.26 25.908 14.708 25.908C14.084 25.908 13.592 25.704 13.232 25.296C12.872 24.888 12.692 24.348 12.692 23.676C12.692 22.284 13.232 20.508 14.312 18.348C15.392 16.164 17.06 13.44 19.316 10.176C20.348 8.712 20.864 7.764 20.864 7.332C20.864 7.092 20.732 6.972 20.468 6.972C19.628 6.972 17.9 8.328 15.284 11.04C12.692 13.752 9.608 17.568 6.032 22.488C5.696 22.968 5.384 23.208 5.096 23.208C4.808 23.208 4.436 22.98 3.98 22.524C3.524 22.068 3.296 21.732 3.296 21.516C3.296 21.252 3.62 20.64 4.268 19.68C6.26 16.704 8.06 13.716 9.668 10.716C11.3 7.692 12.116 5.892 12.116 5.316C12.116 5.1 12.032 4.932 11.864 4.812C11.696 4.692 11.54 4.632 11.396 4.632C10.916 4.632 9.776 5.028 7.976 5.82C6.176 6.588 4.388 7.5 2.612 8.556C1.58 9.204 0.896002 9.528 0.560001 9.528C0.296001 9.528 0.164001 9.3 0.164001 8.844C0.164001 8.076 0.560001 7.14 1.352 6.036C2.144 4.908 3.164 3.864 4.412 2.904C5.684 1.92 6.452 1.428 6.716 1.428C6.812 1.428 6.86 1.44 6.86 1.464C6.86 1.488 6.848 1.512 6.824 1.536C5.984 2.208 5.348 2.88 4.916 3.552C7.34 2.328 9.14 1.464 10.316 0.960001C11.492 0.456002 12.488 0.204002 13.304 0.204002C14.84 0.204002 15.608 0.816002 15.608 2.04C15.608 2.4 15.512 2.832 15.32 3.336C15.152 3.816 14.78 4.596 14.204 5.676C13.652 6.732 12.68 8.46 11.288 10.86L6.788 18.6C11.708 12.48 15.548 8.172 18.308 5.676C21.068 3.156 22.892 1.896 23.78 1.896C23.996 1.896 24.284 2.232 24.644 2.904C25.028 3.576 25.22 4.14 25.22 4.596C25.22 5.412 25.052 6.156 24.716 6.828C24.38 7.476 23.768 8.412 22.88 9.636C20.408 13.02 18.728 15.492 17.84 17.052C16.976 18.588 16.544 19.836 16.544 20.796C16.544 21.588 16.952 21.984 17.768 21.984C18.872 21.984 20.624 20.772 23.024 18.348L23.06 19.716Z" fill="white"/>
<path d="M25.7327 19.104V19.536C25.7327 20.232 25.8887 20.772 26.2007 21.156C26.5367 21.54 26.9927 21.732 27.5687 21.732C28.4567 21.732 29.3447 21.456 30.2327 20.904C31.1447 20.328 32.2127 19.512 33.4367 18.456V19.536C30.7007 22.824 28.2767 24.468 26.1647 24.468C25.1087 24.468 24.2807 24.048 23.6807 23.208C23.0807 22.344 22.7807 21.192 22.7807 19.752C22.7807 18.528 23.2247 17.244 24.1127 15.9C25.0247 14.556 26.2007 13.428 27.6407 12.516C29.0807 11.58 30.3287 11.112 31.3847 11.112C31.9607 11.112 32.4167 11.244 32.7527 11.508C33.0887 11.772 33.2567 12.144 33.2567 12.624C33.2567 14.88 30.7487 17.04 25.7327 19.104ZM25.9127 17.952C27.4967 17.304 28.7087 16.512 29.5487 15.576C30.3887 14.616 30.8087 13.908 30.8087 13.452C30.8087 13.188 30.6767 13.056 30.4127 13.056C29.8847 13.056 29.0567 13.56 27.9287 14.568C26.8247 15.552 26.1527 16.68 25.9127 17.952Z" fill="white"/>
<path d="M36.1724 18.6C35.9084 19.464 35.7764 20.124 35.7764 20.58C35.7764 20.748 35.8244 20.904 35.9204 21.048C36.0164 21.192 36.1364 21.264 36.2804 21.264C36.7604 21.264 37.7084 20.484 39.1244 18.924C40.5404 17.364 42.3164 15.12 44.4524 12.192C44.5484 12.072 44.7284 12.012 44.9924 12.012C45.2804 12.012 45.5444 12.084 45.7844 12.228C46.0244 12.372 46.1444 12.54 46.1444 12.732C46.1444 12.852 45.8324 13.536 45.2084 14.784C43.6964 17.904 42.9404 19.86 42.9404 20.652C42.9404 21.108 43.1444 21.336 43.5524 21.336C44.0564 21.336 44.9564 20.46 46.2524 18.708C46.2044 18.54 46.1804 18.36 46.1804 18.168C46.1804 17.52 46.4084 16.74 46.8644 15.828C47.3444 14.916 47.9204 14.112 48.5924 13.416C49.2884 12.696 49.8164 12.336 50.1764 12.336C50.5844 12.336 50.7884 12.828 50.7884 13.812C50.7884 15.3 50.1164 16.896 48.7724 18.6C49.2284 19.08 49.6244 19.32 49.9604 19.32C50.3444 19.32 50.8484 19.008 51.4724 18.384V19.644C50.5604 20.604 49.7564 21.084 49.0604 21.084C48.6764 21.084 48.3644 21.036 48.1244 20.94C47.9084 20.844 47.6204 20.664 47.2604 20.4C45.1004 22.992 43.4564 24.288 42.3284 24.288C41.3924 24.288 40.9244 23.676 40.9244 22.452C40.9244 21.804 41.0444 20.748 41.2844 19.284C39.4364 21.468 38.2244 22.8 37.6484 23.28C37.0724 23.76 36.6044 24 36.2444 24C35.6684 24 35.0564 23.568 34.4084 22.704C33.7844 21.84 33.4724 20.796 33.4724 19.572C33.4724 18.78 33.6644 18 34.0484 17.232C34.4324 16.464 35.1044 15.468 36.0644 14.244C37.0244 13.02 37.7804 12.216 38.3324 11.832C38.8844 11.424 39.3044 11.22 39.5924 11.22C39.8804 11.22 40.2164 11.328 40.6004 11.544C40.9844 11.736 41.1764 11.904 41.1764 12.048C41.1764 12.72 40.7324 13.632 39.8444 14.784C38.9804 15.936 37.7564 17.208 36.1724 18.6Z" fill="white"/>
<path d="M51.0129 18.528C54.2049 15.144 56.2809 12.912 57.2409 11.832C57.4809 10.392 58.1049 9.672 59.1129 9.672C59.3529 9.672 59.6169 9.744 59.9049 9.888L60.0129 10.212C59.9649 10.356 59.9409 10.524 59.9409 10.716C59.9409 11.1 60.0249 11.544 60.1929 12.048C60.5529 13.2 60.7329 14.172 60.7329 14.964C60.7329 17.196 59.1849 19.284 56.0889 21.228C56.4009 21.324 56.7129 21.372 57.0249 21.372C58.3209 21.372 60.1089 20.388 62.3889 18.42V19.608C60.5409 21.36 59.0769 22.548 57.9969 23.172C56.9409 23.772 55.9929 24.072 55.1529 24.072C54.2169 24.072 53.3289 23.688 52.4889 22.92C51.6729 22.152 51.2169 21.444 51.1209 20.796C51.0489 20.124 51.0129 19.368 51.0129 18.528ZM57.2409 13.704C56.4009 14.64 54.8529 16.212 52.5969 18.42C53.2209 18.54 53.6649 18.72 53.9289 18.96C54.2169 19.2 54.6129 19.728 55.1169 20.544C55.8609 20.232 56.4609 19.8 56.9169 19.248C57.3729 18.696 57.6009 17.892 57.6009 16.836C57.6009 16.068 57.4809 15.024 57.2409 13.704Z" fill="white"/>
</svg>
